<?xml version="1.0" encoding="UTF-8" standalone="no"?>
<!-- Generator: Avocode 0.4.0 - http://avocode.com -->
<svg xmlns="http://www.w3.org/2000/svg" xmlns:xlink="http://www.w3.org/1999/xlink" width="55" height="38" view-box="0 0 55 38">
    <desc>Created with Avocode</desc>
    <path d="M 3.07 0 C 1.38 0, 0 1.41, 0 3.15 L 0 34.87 C 0 36.6, 1.38 38.01, 3.07 38.01 L 50.95 38.01 C 52.65 38.01, 54.03 36.6, 54.03 34.87 L 54.03 3.15 C 54.03 1.41, 52.65 0, 50.95 0 L 3.07 0 Z" fill="#4143b3" />
    <path d="M 3.07 12 C 1.38 12, 0 13.41, 0 15.15 L 0 34.87 C 0 36.6, 1.38 38.01, 3.07 38.01 L 50.95 38.01 C 52.65 38.01, 54.03 36.6, 54.03 34.87 L 54.03 15.15 C 54.03 13.41, 52.65 12, 50.95 12 L 3.07 12 Z" fill="#e59703" />
    <rect x="0" y="10" width="54" height="18" fill="#ffffff" />
    <text x="13" y="25" fill="#4143b3" font-family="Open Sans" font-size="14" font-style="italic" font-weight="700">
        <tspan>VISA</tspan>
    </text>
    <path d="M 3.07 38.01 L 54.03 3.15 C 54.03 1.41, 52.65 0, 50.95 0 L 3.07 0 C 1.38 0, 0 1.41, 0 3.15 L 0 34.87 C 0 36.6, 1.38 38.01, 3.07 38.01 Z" opacity="0.1" fill="#ffffff" />
</svg>